<svg width="10" height="10" viewBox="0 0 10 10" fill="none" xmlns="http://www.w3.org/2000/svg">
<g clip-path="url(#clip0_38_799)">
<path d="M4.12471 0.58383C4.50515 -0.104603 5.49477 -0.104603 5.87521 0.58383L6.65692 1.99839C6.80033 2.2579 7.0515 2.44039 7.34263 2.49659L8.92952 2.80292C9.70182 2.952 10.0077 3.89318 9.47046 4.46774L8.36669 5.64831C8.16419 5.8649 8.06825 6.16017 8.10477 6.45442L8.30381 8.0583C8.40068 8.83887 7.60006 9.42055 6.88763 9.08722L5.42375 8.40229C5.1552 8.27663 4.84472 8.27663 4.57617 8.40229L3.11229 9.08722C2.39986 9.42056 1.59924 8.83887 1.69611 8.0583L1.89515 6.45442C1.93167 6.16017 1.83573 5.8649 1.63323 5.64831L0.529462 4.46774C-0.00771445 3.89318 0.298095 2.952 1.0704 2.80292L2.65729 2.49659C2.94842 2.44039 3.19959 2.2579 3.343 1.99839L4.12471 0.58383Z" fill="url(#paint0_linear_38_799)"/>
</g>
<defs>
<linearGradient id="paint0_linear_38_799" x1="0.374153" y1="-0.999997" x2="10.5161" y2="-0.999997" gradientUnits="userSpaceOnUse">
<stop stop-color="#A02279"/>
</linearGradient>
<clipPath id="clip0_38_799">
<rect width="10" height="10" fill="white"/>
</clipPath>
</defs>
</svg>
